<?xml version="1.0" encoding="UTF-8" standalone="no"?>
<!-- Created with Inkscape (http://www.inkscape.org/) -->

<svg
   xmlns:dc="http://purl.org/dc/elements/1.1/"
   xmlns:cc="http://creativecommons.org/ns#"
   xmlns:rdf="http://www.w3.org/1999/02/22-rdf-syntax-ns#"
   xmlns:svg="http://www.w3.org/2000/svg"
   xmlns="http://www.w3.org/2000/svg"
   xmlns:sodipodi="http://sodipodi.sourceforge.net/DTD/sodipodi-0.dtd"
   xmlns:inkscape="http://www.inkscape.org/namespaces/inkscape"
   id="svg2"
   version="1.1"
   inkscape:version="0.91 r13725"
   width="259.8385"
   height="197.56201"
   viewBox="0 0 259.8385 197.56201"
   sodipodi:docname="logo2.svg"
   inkscape:export-filename="/home/nick/Desktop/logo2.png"
   inkscape:export-xdpi="102.04391"
   inkscape:export-ydpi="102.04391">
  <metadata
     id="metadata8">
    <rdf:RDF>
      <cc:Work
         rdf:about="">
        <dc:format>image/svg+xml</dc:format>
        <dc:type
           rdf:resource="http://purl.org/dc/dcmitype/StillImage" />
        <dc:title></dc:title>
      </cc:Work>
    </rdf:RDF>
  </metadata>
  <defs
     id="defs6" />
  <sodipodi:namedview
     pagecolor="#ffffff"
     bordercolor="#666666"
     borderopacity="1"
     objecttolerance="10"
     gridtolerance="10"
     guidetolerance="10"
     inkscape:pageopacity="0"
     inkscape:pageshadow="2"
     inkscape:window-width="1920"
     inkscape:window-height="1021"
     id="namedview4"
     showgrid="false"
     inkscape:zoom="0.7871566"
     inkscape:cx="18.203114"
     inkscape:cy="108.68261"
     inkscape:window-x="0"
     inkscape:window-y="32"
     inkscape:window-maximized="1"
     inkscape:current-layer="svg2"
     fit-margin-top="0"
     fit-margin-left="0"
     fit-margin-right="0"
     fit-margin-bottom="0" />
  <g
     id="g4140"
     transform="matrix(0.01876668,-0.99982388,0.99982388,0.01876668,-10.010412,216.81249)">
    <g
       transform="translate(0.50242183,3.6921456)"
       id="g4138">
      <path
         inkscape:connector-curvature="0"
         id="path4180"
         d="m 104.50292,184.37746 c -4.3984,-0.79368 -8.499135,-1.9908 -9.112748,-2.66026 -1.406245,-1.53423 -4.891913,-19.51404 -6.827407,-35.2172 -2.009507,-16.30364 -2.158947,-19.03073 -1.030967,-18.81377 0.532511,0.10243 6.593202,3.42826 13.468202,7.39074 19.63461,11.3166 43.64876,22.10478 64.30055,28.88653 3.95034,1.29724 6.63976,2.71557 6.41691,3.38413 -0.56666,1.69996 -15.12379,10.28255 -21.60324,12.73682 -14.52614,5.5022 -30.5515,7.01053 -45.6113,4.29301 z"
         style="fill:#5856d6;fill-opacity:1" />
      <path
         inkscape:connector-curvature="0"
         id="path4178"
         d="m 82.860622,177.11421 c -9.50887,-4.82316 -16.130113,-9.70796 -23.480032,-17.3223 -8.262246,-8.55948 -14.180146,-18.1254 -18.466162,-29.84939 L 37.828044,121.5 43.164022,116.57652 C 51.250689,109.11498 79.700715,87 81.213008,87 c 0.257609,0 0.752982,9.788665 1.100829,21.75259 0.747752,25.71831 4.513858,57.33143 8.279303,69.49741 0.766978,2.47807 -1.168188,2.19383 -7.732518,-1.13579 z"
         style="fill:#ff2d55;fill-opacity:1" />
      <path
         inkscape:connector-curvature="0"
         id="path4176"
         d="m 161.98583,159.04882 c -21.19746,-7.42742 -38.45723,-15.0896 -36.91283,-16.38681 0.23485,-0.19726 5.152,-2.98959 10.927,-6.20517 19.53994,-10.88006 43.16424,-27.68266 60.10848,-42.751686 5.20673,-4.630508 5.41381,-4.716192 6.04184,-2.5 1.24692,4.400123 0.83823,19.934606 -0.72335,27.494676 -2.86416,13.8663 -9.02179,26.93044 -17.22066,36.53566 -8.05937,9.4418 -6.7825,9.22267 -22.22048,3.81333 z"
         style="fill:#00e8b3;fill-opacity:1" />
      <path
         inkscape:connector-curvature="0"
         id="path4174"
         d="m 156.99916,101.75 c -10e-4,-23.856469 -1.37757,-38.24684 -6.17402,-64.548995 -1.13327,-6.214448 -1.82614,-11.533341 -1.53972,-11.819762 0.70475,-0.704751 7.73701,2.930017 16.12956,8.3369 14.31689,9.223631 25.5645,22.82635 31.41191,37.989181 5.29194,13.722475 5.88199,11.797412 -6.9911,22.808943 C 179.76055,103.13454 158.80386,119 157.49522,119 c -0.27237,0 -0.4956,-7.7625 -0.49606,-17.25 z"
         style="fill:#4cd964;fill-opacity:1" />
      <path
         inkscape:connector-curvature="0"
         id="path4172"
         d="M 36.510597,109.10552 C 34.373909,87.829304 44.05588,60.605515 58.904236,46.139029 63.483616,41.677422 63.283516,41.692417 73.172314,45.069816 91.275524,51.252747 115,61.142432 115,62.505929 c 0,0.255904 -2.71516,1.835891 -6.0337,3.511081 C 87.057028,78.907744 65.660466,92.511287 47.216159,108.70161 42.660047,112.71572 38.543218,116 38.06765,116 c -0.475567,0 -1.176241,-3.10252 -1.557053,-6.89448 z"
         style="fill:#ff7030;fill-opacity:1" />
      <path
         inkscape:connector-curvature="0"
         id="path4146"
         d="M 142.5,72.820846 C 123.10741,61.235989 100.84584,50.95423 79.54889,43.746161 72.648754,41.410773 67.002471,39.227701 67.001594,38.894891 66.998758,37.818499 78.33893,30.433809 84.082622,27.771772 97.02935,21.771331 103.26599,20.528215 120,20.612553 c 10.58193,0.05333 16.92321,0.536428 19.98544,1.522543 4.32261,1.391989 4.52957,1.642637 5.70114,6.904663 3.06618,13.771637 8.04317,48.616932 7.07233,49.515351 C 152.61651,78.686887 148,76.106468 142.5,72.820846 Z"
         style="fill:#ffce00;fill-opacity:1" />
    </g>
    <circle
       r="93.780708"
       cy="106.5572"
       cx="120.05236"
       id="path4150"
       style="fill:none;fill-opacity:1;stroke:#23b580;stroke-width:10;stroke-miterlimit:4;stroke-dasharray:none;stroke-opacity:1" />
  </g>
  <g
     id="g4178"
     transform="matrix(0.38419736,0,0,0.38419736,56.301396,9.0674188)">
    <g
       id="g4183">
      <g
         id="g4197"
         transform="matrix(1.0113943,0,0,1.0113943,5.1167544,-9.0470323)">
        <path
           id="path4168"
           sodipodi:nodetypes="ccccccc"
           d="m 508.74477,226.99015 c -49.32288,-33.81781 -72.65918,-63.39452 -72.65918,-63.39452 -91.08575,53.67063 -187.81802,244.24156 -187.81802,244.24156 -45.33303,-63.8178 -90.91373,-81.61787 -90.91373,-81.61787 -20.49148,27.3818 -55.81293,63.87384 -55.81293,63.87384 82.38309,22.18746 151.53232,103.60699 151.53232,103.60699 149.48387,-234.68693 255.67154,-266.71 255.67154,-266.71 z"
           style="fill:#5fd35f;fill-opacity:1;fill-rule:evenodd;stroke:none;stroke-width:1px;stroke-linecap:butt;stroke-linejoin:miter;stroke-opacity:1"
           inkscape:connector-curvature="0" />
        <path
           id="path4172-3"
           sodipodi:nodetypes="ccccccc"
           d="m 518.74479,227.27587 c -49.32288,-33.81781 -72.65918,-63.39452 -72.65918,-63.39452 -91.08575,53.67063 -187.81802,244.24156 -187.81802,244.24156 -45.33303,-63.8178 -90.91373,-81.61787 -90.91373,-81.61787 -20.49148,27.3818 -55.81293,63.87384 -55.81293,63.87384 82.38309,22.18746 151.53232,103.60699 151.53232,103.60699 149.48387,-234.68693 255.67154,-266.71 255.67154,-266.71 z"
           style="opacity:0.27777782;fill:#006f00;fill-opacity:0.98717945;fill-rule:evenodd;stroke:none;stroke-width:1px;stroke-linecap:butt;stroke-linejoin:miter;stroke-opacity:1"
           inkscape:connector-curvature="0" />
      </g>
    </g>
  </g>
</svg>
